<svg width="67.733" height="67.733" viewBox="0 0 17.921 17.921" xmlns="http://www.w3.org/2000/svg">
  <!-- Pure flat black version -->
  <path d="m3.973 1.8893 6.5887 3.6879 2.1127-3.6528z" fill="#111111"/>
  <path d="m6.0619 12.144-1.9125 3.7456h8.5747l2.1664-3.7456z" fill="#111111"/>
  <path d="m3.973 1.8893 6.5887 3.6879h-4.526l-1.8859 3.2605 1.9121 3.306-1.9125 3.7456-4.1369-7.1525 3.9605-6.8475" fill="#111111"/>
  
  <!-- Remaining black elements -->
  <g transform="matrix(.14699 0 0 .14672 -.84757 -.42617)">
    <circle cx="117.95" cy="75.441" r="9.6894" fill="#111111"/>
  </g>
  <g transform="matrix(.14699 0 0 .14672 -.20056 -.74963)">
    <circle cx="93.138" cy="55.045" r="7.3559" fill="#111111"/>
  </g>
  <g transform="matrix(.14699 0 0 .14672 -.17051 -.32616)">
    <circle cx="103.06" cy="26.657" r="3.7877" fill="#111111"/>
  </g>

  <path d="m6.0356 5.5772 6.6388-3.6528-2.1127 3.6528z" fill="#111111"/>
  <path d="m0.0125 8.7368 6.0231-3.1596-1.8859 3.2605z" fill="#111111"/>
  <path d="m6.0356 5.5772-2.0626-3.6879 0.17673 6.9484z" fill="#111111"/>
  <path d="m6.0619 12.144 6.6622 3.7456 2.1664-3.7456z" fill="#111111"/>
  <path d="m4.1498 8.8377-3.1586 1.5811 3.1583 5.4705z" fill="#111111"/>
  <path d="m0.99115 10.419 5.0708 1.7248-1.9121-3.306z" fill="#111111"/>
</svg>